<mxfile host="app.diagrams.net" agent="Mozilla/5.0 (Windows NT 10.0; Win64; x64) AppleWebKit/537.36 (KHTML, like Gecko) Chrome/135.0.0.0 Safari/537.36 Edg/135.0.0.0" version="26.1.3">
  <diagram id="C5RBs43oDa-KdzZeNtuy" name="Page-1">
    <mxGraphModel dx="1042" dy="565" grid="1" gridSize="10" guides="1" tooltips="1" connect="1" arrows="1" fold="1" page="1" pageScale="1" pageWidth="827" pageHeight="1169" math="0" shadow="0">
      <root>
        <mxCell id="WIyWlLk6GJQsqaUBKTNV-0" />
        <mxCell id="WIyWlLk6GJQsqaUBKTNV-1" parent="WIyWlLk6GJQsqaUBKTNV-0" />
        <mxCell id="DCcVDFWdEJBWvEa12kOU-0" value="Start" style="strokeWidth=2;html=1;shape=mxgraph.flowchart.start_2;whiteSpace=wrap;" vertex="1" parent="WIyWlLk6GJQsqaUBKTNV-1">
          <mxGeometry x="350" y="20" width="100" height="100" as="geometry" />
        </mxCell>
        <mxCell id="DCcVDFWdEJBWvEa12kOU-16" style="edgeStyle=orthogonalEdgeStyle;rounded=0;orthogonalLoop=1;jettySize=auto;html=1;exitX=0.5;exitY=1;exitDx=0;exitDy=0;exitPerimeter=0;entryX=0.5;entryY=0;entryDx=0;entryDy=0;" edge="1" parent="WIyWlLk6GJQsqaUBKTNV-1" source="DCcVDFWdEJBWvEa12kOU-1" target="DCcVDFWdEJBWvEa12kOU-2">
          <mxGeometry relative="1" as="geometry" />
        </mxCell>
        <mxCell id="DCcVDFWdEJBWvEa12kOU-1" value="Output Options" style="strokeWidth=2;html=1;shape=mxgraph.flowchart.display;whiteSpace=wrap;" vertex="1" parent="WIyWlLk6GJQsqaUBKTNV-1">
          <mxGeometry x="340" y="140" width="110" height="80" as="geometry" />
        </mxCell>
        <mxCell id="DCcVDFWdEJBWvEa12kOU-2" value="User Input Options" style="verticalLabelPosition=middle;verticalAlign=middle;html=1;shape=trapezoid;perimeter=trapezoidPerimeter;whiteSpace=wrap;size=0.23;arcSize=10;flipV=1;labelPosition=center;align=center;" vertex="1" parent="WIyWlLk6GJQsqaUBKTNV-1">
          <mxGeometry x="350" y="250" width="100" height="60" as="geometry" />
        </mxCell>
        <mxCell id="DCcVDFWdEJBWvEa12kOU-12" style="edgeStyle=orthogonalEdgeStyle;rounded=0;orthogonalLoop=1;jettySize=auto;html=1;exitX=0.5;exitY=1;exitDx=0;exitDy=0;exitPerimeter=0;entryX=0.5;entryY=0;entryDx=0;entryDy=0;" edge="1" parent="WIyWlLk6GJQsqaUBKTNV-1" source="DCcVDFWdEJBWvEa12kOU-3" target="DCcVDFWdEJBWvEa12kOU-7">
          <mxGeometry relative="1" as="geometry" />
        </mxCell>
        <mxCell id="DCcVDFWdEJBWvEa12kOU-13" style="edgeStyle=orthogonalEdgeStyle;rounded=0;orthogonalLoop=1;jettySize=auto;html=1;exitX=0.5;exitY=1;exitDx=0;exitDy=0;exitPerimeter=0;entryX=0.5;entryY=0;entryDx=0;entryDy=0;" edge="1" parent="WIyWlLk6GJQsqaUBKTNV-1" source="DCcVDFWdEJBWvEa12kOU-3" target="DCcVDFWdEJBWvEa12kOU-8">
          <mxGeometry relative="1" as="geometry" />
        </mxCell>
        <mxCell id="DCcVDFWdEJBWvEa12kOU-32" style="edgeStyle=orthogonalEdgeStyle;rounded=0;orthogonalLoop=1;jettySize=auto;html=1;exitX=0.5;exitY=1;exitDx=0;exitDy=0;exitPerimeter=0;entryX=0.5;entryY=0;entryDx=0;entryDy=0;" edge="1" parent="WIyWlLk6GJQsqaUBKTNV-1" source="DCcVDFWdEJBWvEa12kOU-3" target="DCcVDFWdEJBWvEa12kOU-31">
          <mxGeometry relative="1" as="geometry" />
        </mxCell>
        <mxCell id="DCcVDFWdEJBWvEa12kOU-3" value="Valid Option?" style="strokeWidth=2;html=1;shape=mxgraph.flowchart.decision;whiteSpace=wrap;" vertex="1" parent="WIyWlLk6GJQsqaUBKTNV-1">
          <mxGeometry x="350" y="330" width="100" height="100" as="geometry" />
        </mxCell>
        <mxCell id="DCcVDFWdEJBWvEa12kOU-4" style="edgeStyle=orthogonalEdgeStyle;rounded=0;orthogonalLoop=1;jettySize=auto;html=1;exitX=0;exitY=0.5;exitDx=0;exitDy=0;exitPerimeter=0;entryX=0;entryY=0.5;entryDx=0;entryDy=0;entryPerimeter=0;dashed=1;" edge="1" parent="WIyWlLk6GJQsqaUBKTNV-1" source="DCcVDFWdEJBWvEa12kOU-3" target="DCcVDFWdEJBWvEa12kOU-0">
          <mxGeometry relative="1" as="geometry">
            <Array as="points">
              <mxPoint x="270" y="380" />
              <mxPoint x="270" y="70" />
            </Array>
          </mxGeometry>
        </mxCell>
        <mxCell id="DCcVDFWdEJBWvEa12kOU-5" value="NO" style="edgeLabel;html=1;align=center;verticalAlign=middle;resizable=0;points=[];fontStyle=1" vertex="1" connectable="0" parent="DCcVDFWdEJBWvEa12kOU-4">
          <mxGeometry x="0.16" y="1" relative="1" as="geometry">
            <mxPoint y="63" as="offset" />
          </mxGeometry>
        </mxCell>
        <mxCell id="DCcVDFWdEJBWvEa12kOU-33" style="edgeStyle=orthogonalEdgeStyle;rounded=0;orthogonalLoop=1;jettySize=auto;html=1;exitX=0.5;exitY=1;exitDx=0;exitDy=0;entryX=0.5;entryY=0;entryDx=0;entryDy=0;" edge="1" parent="WIyWlLk6GJQsqaUBKTNV-1" source="DCcVDFWdEJBWvEa12kOU-6" target="DCcVDFWdEJBWvEa12kOU-21">
          <mxGeometry relative="1" as="geometry" />
        </mxCell>
        <mxCell id="DCcVDFWdEJBWvEa12kOU-6" value="Option 1:&amp;nbsp;&lt;div&gt;Create New File&lt;/div&gt;" style="rounded=1;whiteSpace=wrap;html=1;absoluteArcSize=1;arcSize=14;strokeWidth=2;" vertex="1" parent="WIyWlLk6GJQsqaUBKTNV-1">
          <mxGeometry x="130" y="485" width="100" height="100" as="geometry" />
        </mxCell>
        <mxCell id="DCcVDFWdEJBWvEa12kOU-34" style="edgeStyle=orthogonalEdgeStyle;rounded=0;orthogonalLoop=1;jettySize=auto;html=1;exitX=0.5;exitY=1;exitDx=0;exitDy=0;entryX=0.5;entryY=0;entryDx=0;entryDy=0;" edge="1" parent="WIyWlLk6GJQsqaUBKTNV-1" source="DCcVDFWdEJBWvEa12kOU-7" target="DCcVDFWdEJBWvEa12kOU-23">
          <mxGeometry relative="1" as="geometry" />
        </mxCell>
        <mxCell id="DCcVDFWdEJBWvEa12kOU-7" value="Option 2:&lt;div&gt;Open File&lt;/div&gt;" style="rounded=1;whiteSpace=wrap;html=1;absoluteArcSize=1;arcSize=14;strokeWidth=2;" vertex="1" parent="WIyWlLk6GJQsqaUBKTNV-1">
          <mxGeometry x="350" y="485" width="100" height="100" as="geometry" />
        </mxCell>
        <mxCell id="DCcVDFWdEJBWvEa12kOU-35" style="edgeStyle=orthogonalEdgeStyle;rounded=0;orthogonalLoop=1;jettySize=auto;html=1;exitX=0.5;exitY=1;exitDx=0;exitDy=0;entryX=0.5;entryY=0;entryDx=0;entryDy=0;" edge="1" parent="WIyWlLk6GJQsqaUBKTNV-1" source="DCcVDFWdEJBWvEa12kOU-8" target="DCcVDFWdEJBWvEa12kOU-27">
          <mxGeometry relative="1" as="geometry" />
        </mxCell>
        <mxCell id="DCcVDFWdEJBWvEa12kOU-8" value="Option 3:&amp;nbsp;&lt;div&gt;Edit File&lt;/div&gt;" style="rounded=1;whiteSpace=wrap;html=1;absoluteArcSize=1;arcSize=14;strokeWidth=2;" vertex="1" parent="WIyWlLk6GJQsqaUBKTNV-1">
          <mxGeometry x="580" y="485" width="100" height="100" as="geometry" />
        </mxCell>
        <mxCell id="DCcVDFWdEJBWvEa12kOU-10" style="edgeStyle=orthogonalEdgeStyle;rounded=0;orthogonalLoop=1;jettySize=auto;html=1;exitX=0.5;exitY=1;exitDx=0;exitDy=0;exitPerimeter=0;entryX=0.336;entryY=0;entryDx=0;entryDy=0;entryPerimeter=0;" edge="1" parent="WIyWlLk6GJQsqaUBKTNV-1" source="DCcVDFWdEJBWvEa12kOU-3" target="DCcVDFWdEJBWvEa12kOU-6">
          <mxGeometry relative="1" as="geometry" />
        </mxCell>
        <mxCell id="DCcVDFWdEJBWvEa12kOU-14" value="YES" style="edgeLabel;html=1;align=center;verticalAlign=middle;resizable=0;points=[];fontStyle=1" vertex="1" connectable="0" parent="DCcVDFWdEJBWvEa12kOU-10">
          <mxGeometry x="-0.869" y="3" relative="1" as="geometry">
            <mxPoint x="-3" y="1" as="offset" />
          </mxGeometry>
        </mxCell>
        <mxCell id="DCcVDFWdEJBWvEa12kOU-15" style="edgeStyle=orthogonalEdgeStyle;rounded=0;orthogonalLoop=1;jettySize=auto;html=1;exitX=0.5;exitY=1;exitDx=0;exitDy=0;exitPerimeter=0;entryX=0.564;entryY=0.025;entryDx=0;entryDy=0;entryPerimeter=0;" edge="1" parent="WIyWlLk6GJQsqaUBKTNV-1" source="DCcVDFWdEJBWvEa12kOU-0" target="DCcVDFWdEJBWvEa12kOU-1">
          <mxGeometry relative="1" as="geometry" />
        </mxCell>
        <mxCell id="DCcVDFWdEJBWvEa12kOU-17" style="edgeStyle=orthogonalEdgeStyle;rounded=0;orthogonalLoop=1;jettySize=auto;html=1;exitX=0.5;exitY=1;exitDx=0;exitDy=0;entryX=0.5;entryY=0;entryDx=0;entryDy=0;entryPerimeter=0;" edge="1" parent="WIyWlLk6GJQsqaUBKTNV-1" source="DCcVDFWdEJBWvEa12kOU-2" target="DCcVDFWdEJBWvEa12kOU-3">
          <mxGeometry relative="1" as="geometry" />
        </mxCell>
        <mxCell id="DCcVDFWdEJBWvEa12kOU-19" value="User input&amp;nbsp;&lt;div&gt;Data on File&lt;/div&gt;" style="shape=parallelogram;html=1;strokeWidth=2;perimeter=parallelogramPerimeter;whiteSpace=wrap;rounded=1;arcSize=12;size=0.23;" vertex="1" parent="WIyWlLk6GJQsqaUBKTNV-1">
          <mxGeometry x="110" y="760" width="120" height="80" as="geometry" />
        </mxCell>
        <mxCell id="DCcVDFWdEJBWvEa12kOU-21" value="Input NEW&lt;div&gt;File name&lt;/div&gt;" style="verticalLabelPosition=middle;verticalAlign=middle;html=1;shape=trapezoid;perimeter=trapezoidPerimeter;whiteSpace=wrap;size=0.23;arcSize=10;flipV=1;labelPosition=center;align=center;" vertex="1" parent="WIyWlLk6GJQsqaUBKTNV-1">
          <mxGeometry x="120" y="620" width="115" height="90" as="geometry" />
        </mxCell>
        <mxCell id="DCcVDFWdEJBWvEa12kOU-23" value="Input Existing&amp;nbsp;&lt;div&gt;File name&lt;/div&gt;" style="verticalLabelPosition=middle;verticalAlign=middle;html=1;shape=trapezoid;perimeter=trapezoidPerimeter;whiteSpace=wrap;size=0.23;arcSize=10;flipV=1;labelPosition=center;align=center;" vertex="1" parent="WIyWlLk6GJQsqaUBKTNV-1">
          <mxGeometry x="347.5" y="620" width="115" height="90" as="geometry" />
        </mxCell>
        <mxCell id="DCcVDFWdEJBWvEa12kOU-24" value="&lt;div&gt;Output&lt;/div&gt;&lt;div&gt;File Context&lt;/div&gt;" style="shape=parallelogram;html=1;strokeWidth=2;perimeter=parallelogramPerimeter;whiteSpace=wrap;rounded=1;arcSize=12;size=0.23;" vertex="1" parent="WIyWlLk6GJQsqaUBKTNV-1">
          <mxGeometry x="340" y="880" width="120" height="80" as="geometry" />
        </mxCell>
        <mxCell id="DCcVDFWdEJBWvEa12kOU-26" value="User Input&amp;nbsp;&lt;div&gt;&lt;span style=&quot;background-color: transparent; color: light-dark(rgb(0, 0, 0), rgb(255, 255, 255));&quot;&gt;&quot;DONE&quot;&lt;/span&gt;&lt;div&gt;File Saved&lt;/div&gt;&lt;/div&gt;" style="strokeWidth=2;html=1;shape=mxgraph.flowchart.stored_data;whiteSpace=wrap;" vertex="1" parent="WIyWlLk6GJQsqaUBKTNV-1">
          <mxGeometry x="337.5" y="1010" width="105" height="80" as="geometry" />
        </mxCell>
        <mxCell id="DCcVDFWdEJBWvEa12kOU-27" value="Input Existing&amp;nbsp;&lt;div&gt;File name&lt;/div&gt;" style="verticalLabelPosition=middle;verticalAlign=middle;html=1;shape=trapezoid;perimeter=trapezoidPerimeter;whiteSpace=wrap;size=0.23;arcSize=10;flipV=1;labelPosition=center;align=center;" vertex="1" parent="WIyWlLk6GJQsqaUBKTNV-1">
          <mxGeometry x="572.5" y="620" width="115" height="90" as="geometry" />
        </mxCell>
        <mxCell id="DCcVDFWdEJBWvEa12kOU-28" value="&lt;div&gt;&lt;span style=&quot;background-color: transparent; color: light-dark(rgb(0, 0, 0), rgb(255, 255, 255));&quot;&gt;User input&amp;nbsp;&lt;/span&gt;&lt;/div&gt;&lt;div&gt;&lt;span style=&quot;background-color: transparent; color: light-dark(rgb(0, 0, 0), rgb(255, 255, 255));&quot;&gt;New Additional Content&lt;/span&gt;&lt;/div&gt;" style="shape=parallelogram;html=1;strokeWidth=2;perimeter=parallelogramPerimeter;whiteSpace=wrap;rounded=1;arcSize=12;size=0.23;" vertex="1" parent="WIyWlLk6GJQsqaUBKTNV-1">
          <mxGeometry x="571.25" y="880" width="120" height="80" as="geometry" />
        </mxCell>
        <mxCell id="DCcVDFWdEJBWvEa12kOU-31" value="Option 4:&lt;div&gt;Exit Program&lt;/div&gt;" style="rounded=1;whiteSpace=wrap;html=1;absoluteArcSize=1;arcSize=14;strokeWidth=2;" vertex="1" parent="WIyWlLk6GJQsqaUBKTNV-1">
          <mxGeometry x="710" y="390" width="100" height="100" as="geometry" />
        </mxCell>
        <mxCell id="DCcVDFWdEJBWvEa12kOU-58" style="edgeStyle=orthogonalEdgeStyle;rounded=0;orthogonalLoop=1;jettySize=auto;html=1;exitX=0.5;exitY=1;exitDx=0;exitDy=0;exitPerimeter=0;entryX=0.5;entryY=0;entryDx=0;entryDy=0;" edge="1" parent="WIyWlLk6GJQsqaUBKTNV-1" source="DCcVDFWdEJBWvEa12kOU-43" target="DCcVDFWdEJBWvEa12kOU-24">
          <mxGeometry relative="1" as="geometry">
            <mxPoint x="400" y="870" as="targetPoint" />
          </mxGeometry>
        </mxCell>
        <mxCell id="DCcVDFWdEJBWvEa12kOU-43" value="Valid File Name?" style="strokeWidth=2;html=1;shape=mxgraph.flowchart.decision;whiteSpace=wrap;" vertex="1" parent="WIyWlLk6GJQsqaUBKTNV-1">
          <mxGeometry x="337.5" y="730" width="125" height="90" as="geometry" />
        </mxCell>
        <mxCell id="DCcVDFWdEJBWvEa12kOU-45" style="edgeStyle=orthogonalEdgeStyle;rounded=0;orthogonalLoop=1;jettySize=auto;html=1;exitX=0.5;exitY=1;exitDx=0;exitDy=0;entryX=0.5;entryY=0;entryDx=0;entryDy=0;entryPerimeter=0;" edge="1" parent="WIyWlLk6GJQsqaUBKTNV-1" source="DCcVDFWdEJBWvEa12kOU-23" target="DCcVDFWdEJBWvEa12kOU-43">
          <mxGeometry relative="1" as="geometry" />
        </mxCell>
        <mxCell id="DCcVDFWdEJBWvEa12kOU-60" style="edgeStyle=orthogonalEdgeStyle;rounded=0;orthogonalLoop=1;jettySize=auto;html=1;exitX=0.5;exitY=1;exitDx=0;exitDy=0;exitPerimeter=0;" edge="1" parent="WIyWlLk6GJQsqaUBKTNV-1" source="DCcVDFWdEJBWvEa12kOU-56" target="DCcVDFWdEJBWvEa12kOU-28">
          <mxGeometry relative="1" as="geometry" />
        </mxCell>
        <mxCell id="DCcVDFWdEJBWvEa12kOU-56" value="Valid File Name?" style="strokeWidth=2;html=1;shape=mxgraph.flowchart.decision;whiteSpace=wrap;" vertex="1" parent="WIyWlLk6GJQsqaUBKTNV-1">
          <mxGeometry x="570" y="730" width="122.5" height="90" as="geometry" />
        </mxCell>
        <mxCell id="DCcVDFWdEJBWvEa12kOU-65" value="Output&amp;nbsp;&lt;div&gt;File Name&amp;nbsp;&lt;/div&gt;&lt;div&gt;Error&lt;/div&gt;" style="strokeWidth=2;html=1;shape=mxgraph.flowchart.display;whiteSpace=wrap;" vertex="1" parent="WIyWlLk6GJQsqaUBKTNV-1">
          <mxGeometry x="462.5" y="810" width="107.5" height="80" as="geometry" />
        </mxCell>
        <mxCell id="DCcVDFWdEJBWvEa12kOU-68" style="edgeStyle=orthogonalEdgeStyle;rounded=0;orthogonalLoop=1;jettySize=auto;html=1;exitX=0.5;exitY=1;exitDx=0;exitDy=0;entryX=0.5;entryY=0;entryDx=0;entryDy=0;entryPerimeter=0;" edge="1" parent="WIyWlLk6GJQsqaUBKTNV-1" source="DCcVDFWdEJBWvEa12kOU-27" target="DCcVDFWdEJBWvEa12kOU-56">
          <mxGeometry relative="1" as="geometry" />
        </mxCell>
        <mxCell id="DCcVDFWdEJBWvEa12kOU-69" style="edgeStyle=orthogonalEdgeStyle;rounded=0;orthogonalLoop=1;jettySize=auto;html=1;exitX=1;exitY=0.5;exitDx=0;exitDy=0;exitPerimeter=0;entryX=0.315;entryY=0.04;entryDx=0;entryDy=0;entryPerimeter=0;dashed=1;" edge="1" parent="WIyWlLk6GJQsqaUBKTNV-1" source="DCcVDFWdEJBWvEa12kOU-43" target="DCcVDFWdEJBWvEa12kOU-65">
          <mxGeometry relative="1" as="geometry" />
        </mxCell>
        <mxCell id="DCcVDFWdEJBWvEa12kOU-70" style="edgeStyle=orthogonalEdgeStyle;rounded=0;orthogonalLoop=1;jettySize=auto;html=1;exitX=0;exitY=0.5;exitDx=0;exitDy=0;exitPerimeter=0;entryX=0.675;entryY=0;entryDx=0;entryDy=0;entryPerimeter=0;dashed=1;" edge="1" parent="WIyWlLk6GJQsqaUBKTNV-1" source="DCcVDFWdEJBWvEa12kOU-56" target="DCcVDFWdEJBWvEa12kOU-65">
          <mxGeometry relative="1" as="geometry" />
        </mxCell>
        <mxCell id="DCcVDFWdEJBWvEa12kOU-72" style="edgeStyle=orthogonalEdgeStyle;rounded=0;orthogonalLoop=1;jettySize=auto;html=1;exitX=0.5;exitY=1;exitDx=0;exitDy=0;entryX=0.567;entryY=-0.005;entryDx=0;entryDy=0;entryPerimeter=0;" edge="1" parent="WIyWlLk6GJQsqaUBKTNV-1" source="DCcVDFWdEJBWvEa12kOU-21" target="DCcVDFWdEJBWvEa12kOU-19">
          <mxGeometry relative="1" as="geometry" />
        </mxCell>
        <mxCell id="DCcVDFWdEJBWvEa12kOU-73" style="edgeStyle=orthogonalEdgeStyle;rounded=0;orthogonalLoop=1;jettySize=auto;html=1;exitX=0.5;exitY=1;exitDx=0;exitDy=0;entryX=-0.01;entryY=0.67;entryDx=0;entryDy=0;entryPerimeter=0;" edge="1" parent="WIyWlLk6GJQsqaUBKTNV-1" source="DCcVDFWdEJBWvEa12kOU-19" target="DCcVDFWdEJBWvEa12kOU-26">
          <mxGeometry relative="1" as="geometry" />
        </mxCell>
        <mxCell id="DCcVDFWdEJBWvEa12kOU-74" style="edgeStyle=orthogonalEdgeStyle;rounded=0;orthogonalLoop=1;jettySize=auto;html=1;exitX=0.5;exitY=1;exitDx=0;exitDy=0;entryX=0.595;entryY=0;entryDx=0;entryDy=0;entryPerimeter=0;" edge="1" parent="WIyWlLk6GJQsqaUBKTNV-1" source="DCcVDFWdEJBWvEa12kOU-24" target="DCcVDFWdEJBWvEa12kOU-26">
          <mxGeometry relative="1" as="geometry" />
        </mxCell>
        <mxCell id="DCcVDFWdEJBWvEa12kOU-75" style="edgeStyle=orthogonalEdgeStyle;rounded=0;orthogonalLoop=1;jettySize=auto;html=1;exitX=0.5;exitY=1;exitDx=0;exitDy=0;entryX=0.995;entryY=0.99;entryDx=0;entryDy=0;entryPerimeter=0;" edge="1" parent="WIyWlLk6GJQsqaUBKTNV-1" source="DCcVDFWdEJBWvEa12kOU-28" target="DCcVDFWdEJBWvEa12kOU-26">
          <mxGeometry relative="1" as="geometry" />
        </mxCell>
      </root>
    </mxGraphModel>
  </diagram>
</mxfile>
